<svg width="25" height="20" viewBox="0 0 25 20" fill="none" xmlns="http://www.w3.org/2000/svg">
<path d="M21.1773 1.67503C19.5378 0.882246 17.8033 0.318937 16.0197 0C15.7975 0.4151 15.538 0.973412 15.359 1.41758C13.4359 1.11871 11.5306 1.11871 9.64286 1.41758C9.46395 0.973512 9.19853 0.4151 8.97431 0C7.18895 0.319076 5.45298 0.88382 3.81269 1.67917C0.548626 6.77674 -0.336237 11.7475 0.106146 16.648C2.27109 18.3188 4.36913 19.3338 6.43183 19.998C6.94449 19.2694 7.39765 18.4981 7.78661 17.692C7.04601 17.4006 6.33205 17.0415 5.65321 16.6189C5.83184 16.4821 6.00628 16.3395 6.17626 16.1913C10.2897 18.1797 14.7593 18.1797 18.8237 16.1913C18.9944 16.3385 19.1688 16.4811 19.3467 16.6189C18.6668 17.0426 17.9515 17.4024 17.2094 17.6941C17.6006 18.5035 18.0529 19.2756 18.5641 20C20.6288 19.3359 22.7288 18.3209 24.8937 16.648C25.4129 10.9672 24.007 6.04201 21.1773 1.67503ZM8.34706 13.6343C7.1122 13.6343 6.0995 12.4429 6.0995 10.9921C6.0995 9.54135 7.09062 8.34792 8.34706 8.34792C9.60351 8.34792 10.6162 9.53923 10.5946 10.9921C10.5966 12.4429 9.6036 13.6343 8.34706 13.6343ZM16.6528 13.6343C15.418 13.6343 14.4054 12.4429 14.4054 10.9921C14.4054 9.54135 15.3964 8.34792 16.6528 8.34792C17.9094 8.34792 18.922 9.53923 18.9004 10.9921C18.9004 12.4429 17.9094 13.6343 16.6528 13.6343Z" fill="#5865F2"/>
</svg>
